<svg id="visual" viewBox="0 0 900 600" width="900" height="600" xmlns="http://www.w3.org/2000/svg" xmlns:xlink="http://www.w3.org/1999/xlink" version="1.1"><rect x="0" y="0" width="900" height="600" fill="#ffffff"></rect><defs><linearGradient id="grad1_0" x1="33.3%" y1="100%" x2="100%" y2="0%"><stop offset="20%" stop-color="#3ca9fa" stop-opacity="1"></stop><stop offset="80%" stop-color="#3ca9fa" stop-opacity="1"></stop></linearGradient></defs><defs><linearGradient id="grad1_1" x1="33.3%" y1="100%" x2="100%" y2="0%"><stop offset="20%" stop-color="#3ca9fa" stop-opacity="1"></stop><stop offset="80%" stop-color="#b0d3fd" stop-opacity="1"></stop></linearGradient></defs><defs><linearGradient id="grad1_2" x1="33.3%" y1="100%" x2="100%" y2="0%"><stop offset="20%" stop-color="#ffffff" stop-opacity="1"></stop><stop offset="80%" stop-color="#b0d3fd" stop-opacity="1"></stop></linearGradient></defs><defs><linearGradient id="grad2_0" x1="0%" y1="100%" x2="66.7%" y2="0%"><stop offset="20%" stop-color="#3ca9fa" stop-opacity="1"></stop><stop offset="80%" stop-color="#3ca9fa" stop-opacity="1"></stop></linearGradient></defs><defs><linearGradient id="grad2_1" x1="0%" y1="100%" x2="66.7%" y2="0%"><stop offset="20%" stop-color="#b0d3fd" stop-opacity="1"></stop><stop offset="80%" stop-color="#3ca9fa" stop-opacity="1"></stop></linearGradient></defs><defs><linearGradient id="grad2_2" x1="0%" y1="100%" x2="66.7%" y2="0%"><stop offset="20%" stop-color="#b0d3fd" stop-opacity="1"></stop><stop offset="80%" stop-color="#ffffff" stop-opacity="1"></stop></linearGradient></defs><g transform="translate(900, 600)"><path d="M-486.7 0C-484.7 -70.8 -482.7 -141.5 -444.4 -184.1C-406 -226.6 -331.3 -241 -287.1 -287.1C-242.8 -333.2 -229 -411.1 -186.3 -449.7C-143.5 -488.3 -71.7 -487.5 0 -486.7L0 0Z" fill="#d9e9fe"></path><path d="M-324.5 0C-323.2 -47.2 -321.8 -94.3 -296.3 -122.7C-270.7 -151.1 -220.9 -160.6 -191.4 -191.4C-161.9 -222.1 -152.7 -274.1 -124.2 -299.8C-95.7 -325.5 -47.8 -325 0 -324.5L0 0Z" fill="#81befc"></path><path d="M-162.2 0C-161.6 -23.6 -160.9 -47.2 -148.1 -61.4C-135.3 -75.5 -110.4 -80.3 -95.7 -95.7C-80.9 -111.1 -76.3 -137 -62.1 -149.9C-47.8 -162.8 -23.9 -162.5 0 -162.2L0 0Z" fill="#3ca9fa"></path></g><g transform="translate(0, 0)"><path d="M486.7 0C488.8 72.3 490.8 144.6 449.7 186.3C408.6 227.9 324.5 238.9 275.1 275.1C225.6 311.2 210.7 372.6 170.7 412.1C130.6 451.5 65.3 469.1 0 486.7L0 0Z" fill="#d9e9fe"></path><path d="M324.5 0C325.8 48.2 327.2 96.4 299.8 124.2C272.4 151.9 216.4 159.3 183.4 183.4C150.4 207.5 140.5 248.4 113.8 274.7C87.1 301 43.5 312.8 0 324.5L0 0Z" fill="#81befc"></path><path d="M162.2 0C162.9 24.1 163.6 48.2 149.9 62.1C136.2 76 108.2 79.6 91.7 91.7C75.2 103.7 70.2 124.2 56.9 137.4C43.5 150.5 21.8 156.4 0 162.2L0 0Z" fill="#3ca9fa"></path></g></svg>